<?xml version="1.0" encoding="utf-8"?>
<!-- Generator: Adobe Illustrator 21.1.0, SVG Export Plug-In . SVG Version: 6.00 Build 0)  -->
<svg version="1.1" id="Layer_1" xmlns="http://www.w3.org/2000/svg" xmlns:xlink="http://www.w3.org/1999/xlink" x="0px" y="0px"
	 viewBox="0 0 90 90" style="enable-background:new 0 0 90 90;" xml:space="preserve">
<style type="text/css">
	.st0{fill:#00474F;}
</style>
<g>
	<path class="st0" d="M20.6,41.4v5.8h61.1V45c0-1.1-0.4-2.1-1.2-2.8L68.9,30.7c-0.7-0.7-1.7-1.1-2.8-1.1h-5.9v-2.2
		c0-1.6-1.3-3-2.9-3H23.5c-1.6,0-3,1.3-3,3v0.5l-12,1.4L29.8,32L8.3,34.1l21.4,3L8.3,39L20.6,41.4z M63.8,33.5
		c0-0.3,0.2-0.5,0.5-0.5h2.1c0.1,0,0.2,0,0.3,0.1l9.1,8.7c0.3,0.3,0.1,0.8-0.3,0.8H64.2c-0.3,0-0.5-0.2-0.5-0.5V33.5z"/>
	<path class="st0" d="M67.5,53.3c-3.4,0-6.1,2.7-6.1,6.1c0,3.4,2.7,6.1,6.1,6.1c3.4,0,6.1-2.7,6.1-6.1
		C73.7,56.1,70.9,53.3,67.5,53.3z M67.5,62.5c-1.7,0-3.1-1.4-3.1-3.1c0-1.7,1.4-3.1,3.1-3.1c1.7,0,3.1,1.4,3.1,3.1
		C70.6,61.1,69.2,62.5,67.5,62.5z"/>
	<path class="st0" d="M20.6,48.8v6.5c0,1.6,1.3,2.9,3,2.9h4c0.6-3.9,3.9-6.9,8-6.9c4.1,0,7.4,3,8,6.9h16c0.6-3.9,3.9-6.9,8-6.9
		c4.1,0,7.4,3,8,6.9h3.2c1.6,0,3-1.3,3-2.9v-6.5H20.6z"/>
	<path class="st0" d="M35.5,53.3c-3.4,0-6.1,2.7-6.1,6.1c0,3.4,2.7,6.1,6.1,6.1c3.4,0,6.1-2.7,6.1-6.1
		C41.6,56.1,38.9,53.3,35.5,53.3z M35.5,62.5c-1.7,0-3.1-1.4-3.1-3.1c0-1.7,1.4-3.1,3.1-3.1c1.7,0,3.1,1.4,3.1,3.1
		C38.6,61.1,37.2,62.5,35.5,62.5z"/>
</g>
</svg>
