<?xml version="1.0" encoding="utf-8"?>
<!-- Generator: Adobe Illustrator 21.1.0, SVG Export Plug-In . SVG Version: 6.00 Build 0)  -->
<svg version="1.1" id="Layer_1" xmlns="http://www.w3.org/2000/svg" xmlns:xlink="http://www.w3.org/1999/xlink" x="0px" y="0px"
	 viewBox="0 0 90 90" style="enable-background:new 0 0 90 90;" xml:space="preserve">
<style type="text/css">
	.st0{fill:#00474F;}
</style>
<g>
	<path class="st0" d="M78.8,33.5c-5.1,0-9.3,4.1-9.4,9.2l0,7.4H20.6l0-7.4c-0.1-5.1-4.3-9.2-9.4-9.2c-5.2,0-9.4,4.2-9.4,9.4
		c0,5.2,4.2,9.4,9.4,9.4c0.2,0,0.3,0,0.5,0c0,0,0,5.2,0,5.3c0,4.1,3.2,7.5,7.3,7.7v7.9c0,0.5,0.4,1,0.9,1c0,0,0.1,0,0.1,0
		c0.5,0,0.9-0.3,1-0.8l2-8.2h43.9l2,8.2c0.1,0.5,0.5,0.8,1,0.8c0,0,0.1,0,0.1,0c0.5-0.1,0.9-0.5,0.9-1v-7.9c4.1-0.2,7.3-3.5,7.3-7.7
		c0,0,0-0.1,0-0.1v-5.2c0.2,0,0.3,0,0.5,0c5.2,0,9.4-4.2,9.4-9.4C88.3,37.7,84,33.5,78.8,33.5z"/>
	<path class="st0" d="M23.5,42.2L23.5,42.2l0,4.6h43.1l0-4.6C66.7,37,70,32.7,74.6,31c0-0.1,0-0.1-0.1-0.2v-8.7
		c0-3.6-2.9-6.5-6.5-6.5H21.9c-3.6,0-6.5,2.9-6.5,6.5v8.8h0c0,0,0,0,0,0C20,32.7,23.3,37,23.5,42.2z M59.1,23.2
		c-0.4-0.4-0.4-1,0-1.4c0.4-0.4,1-0.4,1.4,0l1.3,1.3l1.3-1.3c0.4-0.4,1-0.4,1.4,0c0.4,0.4,0.4,1,0,1.4l-1.3,1.3l1.3,1.3
		c0.4,0.4,0.4,1,0,1.4c-0.4,0.4-1,0.4-1.4,0l-1.3-1.3l-1.3,1.3c-0.4,0.4-1,0.4-1.4,0s-0.4-1,0-1.4l1.3-1.3L59.1,23.2z M50.7,35.5
		c-0.4-0.4-0.4-1,0-1.4c0.4-0.4,1-0.4,1.4,0l1.3,1.3l1.3-1.3c0.4-0.4,1-0.4,1.4,0c0.4,0.4,0.4,1,0,1.4l-1.3,1.3l1.3,1.3
		c0.4,0.4,0.4,1,0,1.4c-0.4,0.4-1,0.4-1.4,0l-1.3-1.3l-1.3,1.3c-0.4,0.4-1,0.4-1.4,0c-0.4-0.4-0.4-1,0-1.4l1.3-1.3L50.7,35.5z
		 M42.3,23.2c-0.4-0.4-0.4-1,0-1.4c0.4-0.4,1-0.4,1.4,0L45,23l1.3-1.3c0.4-0.4,1-0.4,1.4,0c0.4,0.4,0.4,1,0,1.4l-1.3,1.3l1.3,1.3
		c0.4,0.4,0.4,1,0,1.4c-0.4,0.4-1,0.4-1.4,0L45,25.9l-1.3,1.3c-0.4,0.4-1,0.4-1.4,0c-0.4-0.4-0.4-1,0-1.4l1.3-1.3L42.3,23.2z
		 M33.8,35.5c-0.4-0.4-0.4-1,0-1.4c0.4-0.4,1-0.4,1.4,0l1.3,1.3l1.3-1.3c0.4-0.4,1-0.4,1.4,0c0.4,0.4,0.4,1,0,1.4L38,36.8l1.3,1.3
		c0.4,0.4,0.4,1,0,1.4c-0.4,0.4-1,0.4-1.4,0l-1.3-1.3l-1.3,1.3c-0.4,0.4-1,0.4-1.4,0c-0.4-0.4-0.4-1,0-1.4l1.3-1.3L33.8,35.5z
		 M25.4,23.2c-0.4-0.4-0.4-1,0-1.4c0.4-0.4,1-0.4,1.4,0l1.3,1.3l1.3-1.3c0.4-0.4,1-0.4,1.4,0c0.4,0.4,0.4,1,0,1.4l-1.3,1.3l1.3,1.3
		c0.4,0.4,0.4,1,0,1.4s-1,0.4-1.4,0l-1.3-1.3l-1.3,1.3c-0.4,0.4-1,0.4-1.4,0s-0.4-1,0-1.4l1.3-1.3L25.4,23.2z"/>
</g>
</svg>
