<?xml version="1.0" encoding="utf-8"?>
<!-- Generator: Adobe Illustrator 21.1.0, SVG Export Plug-In . SVG Version: 6.00 Build 0)  -->
<svg version="1.1" id="Layer_1" xmlns="http://www.w3.org/2000/svg" xmlns:xlink="http://www.w3.org/1999/xlink" x="0px" y="0px"
	 viewBox="0 0 90 90" style="enable-background:new 0 0 90 90;" xml:space="preserve">
<style type="text/css">
	.st0{fill:#00474F;}
</style>
<g>
	<path class="st0" d="M76,18.3l-3.6-3.8c-0.2-0.3-0.7-0.7-1-0.8c-0.5-0.2-1.1-0.1-1.6,0.2L40.1,36c1.2,1.6,13.1,16.8,13.1,16.8
		c0.1,0,0.2-0.1,0.3-0.2c0.1-0.1,0.1-0.3,0.1-0.4l-0.6-3.8c0-0.2,0.1-0.5,0.4-0.5l3.7-0.6c0.1,0,0.2-0.1,0.3-0.2l0,0
		c0.1-0.1,0.1-0.2,0.1-0.3l-0.6-3.9c0-0.2,0.1-0.5,0.4-0.5l3.7-0.6c0.1,0,0.2-0.1,0.3-0.2l0,0c0.1-0.1,0.1-0.2,0.1-0.3l-0.6-3.9
		c0-0.2,0.1-0.5,0.4-0.5l3.7-0.6c0.1,0,0.2-0.1,0.3-0.2l0,0c0.1-0.1,0.1-0.2,0.1-0.3l-0.5-3.2c-0.1-0.4-0.1-0.8,0-1
		c0.1-0.1,0.2-0.2,0.3-0.2l3.7-0.6c0.1,0,0.1,0,0.2-0.1c0.1-0.1,0.1-0.1,0.1-0.1l0,0c0.1-0.1,0.1-0.2,0.1-0.3l-0.6-3.9
		c0-0.2,0.1-0.5,0.4-0.5l3.7-0.6c0.1,0,0.2-0.1,0.3-0.2l0,0c0.1-0.1,0.1-0.2,0.1-0.3l-0.6-3.9c0-0.2,0.1-0.5,0.4-0.5l3.6-0.7
		c0.4-0.1,0.7-0.1,0.7-0.4C76.7,18.9,76.3,18.6,76,18.3z"/>
	<path class="st0" d="M53,56.3L37.5,36.5c-0.1-0.2-0.4-0.3-0.6-0.3c-0.1,0-0.3,0.1-0.4,0.1l-3.7,2.9l-14.1,11l-2.1,1.6l-2.6,2
		c-1,0.8-1.1,2.1-0.4,3.1l1.6,2.1c0.5,0.6,1.1,0.9,1.8,0.8c0.5,0,0.9-0.2,1.3-0.5c0,0,0.2-0.1,0.4-0.3C19,59,19.1,59,19.2,59
		c0.2,0,0.4,0.1,0.6,0.3l7.7,9.9c0.2,0.3,0.2,0.7,0,0.9l-0.4,0.3c-1,0.8-1.1,2.1-0.4,3.1l1.6,2.1c0.5,0.6,1.1,0.9,1.8,0.9
		c0.5,0,0.9-0.2,1.3-0.5l2.6-2l2.1-1.6l16.5-12.9c0.8-0.6,1.1-1.8,0.6-2.7C53.2,56.6,53.1,56.5,53,56.3z M40.4,63.7l-4.9,3.8
		c-1,0.8-2.4,0.6-3.1-0.4l-9.4-12.1c-0.8-1-0.6-2.3,0.4-3.1l4.9-3.8c1-0.8,2.4-0.6,3.1,0.4l9.4,12.1C41.5,61.6,41.3,63,40.4,63.7z"
		/>
</g>
</svg>
