<?xml version="1.0" encoding="utf-8"?>
<!-- Generator: Adobe Illustrator 21.1.0, SVG Export Plug-In . SVG Version: 6.00 Build 0)  -->
<svg version="1.1" id="Layer_1" xmlns="http://www.w3.org/2000/svg" xmlns:xlink="http://www.w3.org/1999/xlink" x="0px" y="0px"
	 viewBox="0 0 90 90" style="enable-background:new 0 0 90 90;" xml:space="preserve">
<style type="text/css">
	.st0{fill:#00474F;}
</style>
<g>
	<path class="st0" d="M55.2,25.7H28.1c-2.3,0-4.1,1.8-4.1,4.1v16.1c0,2.3,1.8,4.1,4.1,4.1h27.1c2.3,0,4.1-1.8,4.1-4.1V29.8
		C59.3,27.5,57.4,25.7,55.2,25.7z"/>
	<polygon class="st0" points="11.1,32 21.5,41.8 21.5,28.8 11.1,28.8 	"/>
	<path class="st0" d="M61.9,28.8v14.6c15.2-1.6,17-14.6,17-14.6H61.9z"/>
	<polygon class="st0" points="54.5,52.9 28.3,52.9 28.3,59.5 24.1,59.5 24.1,64.3 59.1,64.3 59.1,59.5 54.5,59.5 	"/>
</g>
</svg>
