<?xml version="1.0" encoding="utf-8"?>
<!-- Generator: Adobe Illustrator 21.1.0, SVG Export Plug-In . SVG Version: 6.00 Build 0)  -->
<svg version="1.1" id="Layer_1" xmlns="http://www.w3.org/2000/svg" xmlns:xlink="http://www.w3.org/1999/xlink" x="0px" y="0px"
	 viewBox="0 0 90 90" style="enable-background:new 0 0 90 90;" xml:space="preserve">
<style type="text/css">
	.st0{fill:#00474F;}
</style>
<g>
	<path class="st0" d="M71.9,56.5c-1.5,0-2.7,4-2.7,5.6c0,1.6,1.2,2.8,2.7,2.8c1.5,0,2.7-1.3,2.7-2.8C74.6,60.6,73.4,56.5,71.9,56.5z
		"/>
	<path class="st0" d="M67.1,66.6c-1.5,0-2.7,4-2.7,5.6c0,1.6,1.2,2.8,2.7,2.8c1.5,0,2.7-1.3,2.7-2.8C69.8,70.7,68.6,66.6,67.1,66.6z
		"/>
	<path class="st0" d="M70.1,53.1c0.5,0,0.9-0.1,1.3-0.5c0.3-0.4,0.5-0.9,0.4-1.4l-1.9-13.6c-0.1-0.5-0.3-0.9-0.8-1.2
		c-0.4-0.2-0.9-0.3-1.4-0.1c-2.7,1.1-4.6,3.6-5.1,6.5l-14.9,2.3l7.3-9.7c1.1-1.4,0.9-3.4-0.4-4.6L42.3,19.2
		c-1.3-1.2-3.2-1.2-4.5,0.1l-0.3,0.3c-0.3-0.4-0.6-0.7-1-1.1c-2.3-2.2-5.4-3.4-8.5-3.4c-3.6,0-7,1.6-9.4,4.3
		c-4.6,5.3-4.3,13.4,0.6,18.3c-0.6,0.6-0.9,1.5-0.9,2.4c0,1,0.4,1.8,1.1,2.5l15.1,14.3c0.7,0.6,1.6,1,2.5,0.9
		c0.9-0.1,1.8-0.5,2.3-1.3l3.7-4.8l20.4-3.1C64.7,51,67.2,52.8,70.1,53.1z M22.2,34.7c-3.5-3.4-3.7-9-0.5-12.7
		c1.6-1.9,4-2.9,6.4-2.9c2.2,0,4.2,0.8,5.8,2.3c0.3,0.3,0.5,0.6,0.8,0.9L22.2,34.7z"/>
</g>
</svg>
