<?xml version="1.0" encoding="utf-8"?>
<!-- Generator: Adobe Illustrator 21.1.0, SVG Export Plug-In . SVG Version: 6.00 Build 0)  -->
<svg version="1.1" id="Layer_1" xmlns="http://www.w3.org/2000/svg" xmlns:xlink="http://www.w3.org/1999/xlink" x="0px" y="0px"
	 viewBox="0 0 90 90" style="enable-background:new 0 0 90 90;" xml:space="preserve">
<style type="text/css">
	.st0{fill:#00474F;}
</style>
<g>
	<path class="st0" d="M45,43.2c2,0,3.7-1.7,3.7-3.7V20.9c0-2-1.7-3.7-3.7-3.7c-2,0-3.7,1.7-3.7,3.7v18.5C41.3,41.5,43,43.2,45,43.2z
		"/>
	<path class="st0" d="M62.2,27.5c-1.5-1.4-3.9-1.2-5.2,0.3c-1.4,1.5-1.2,3.9,0.3,5.2c3.9,3.5,6.2,8.6,6.2,13.8
		c0,10.2-8.3,18.5-18.5,18.5s-18.5-8.3-18.5-18.5c0-5.3,2.3-10.3,6.2-13.8c1.5-1.4,1.7-3.7,0.3-5.2c-1.4-1.5-3.7-1.7-5.2-0.3
		c-5.5,4.9-8.7,12-8.7,19.4c0,14.3,11.6,25.9,25.9,25.9c14.3,0,25.9-11.6,25.9-25.9C70.9,39.5,67.7,32.4,62.2,27.5z"/>
</g>
</svg>
