<?xml version="1.0" encoding="utf-8"?>
<!-- Generator: Adobe Illustrator 21.1.0, SVG Export Plug-In . SVG Version: 6.00 Build 0)  -->
<svg version="1.1" id="Layer_1" xmlns="http://www.w3.org/2000/svg" xmlns:xlink="http://www.w3.org/1999/xlink" x="0px" y="0px"
	 viewBox="0 0 90 90" style="enable-background:new 0 0 90 90;" xml:space="preserve">
<style type="text/css">
	.st0{fill:#00474F;}
</style>
<g>
	<path class="st0" d="M79.4,61c-0.1-0.1-0.2-0.1-0.3-0.1H10.9c-0.1,0-0.2,0.1-0.3,0.1c-0.1,0.1-0.1,0.2-0.1,0.3c0,0.1,1,6.4,9,6.4
		h50.9c8,0,9-6.3,9-6.4C79.5,61.2,79.4,61.1,79.4,61z M50.1,65.4H39.9v-2.4h10.3V65.4z"/>
	<path class="st0" d="M18,58.4h54c0.8,0,1.4-0.6,1.4-1.4V23.8c0-0.8-0.6-1.4-1.4-1.4H18c-0.8,0-1.4,0.6-1.4,1.4V57
		C16.6,57.8,17.2,58.4,18,58.4z M21.5,27.3h47v26.1h-47V27.3z"/>
</g>
</svg>
