<?xml version="1.0" encoding="utf-8"?>
<!-- Generator: Adobe Illustrator 21.1.0, SVG Export Plug-In . SVG Version: 6.00 Build 0)  -->
<svg version="1.1" id="Layer_1" xmlns="http://www.w3.org/2000/svg" xmlns:xlink="http://www.w3.org/1999/xlink" x="0px" y="0px"
	 viewBox="0 0 90 90" style="enable-background:new 0 0 90 90;" xml:space="preserve">
<style type="text/css">
	.st0{fill:#00474F;}
</style>
<g>
	<path class="st0" d="M48.4,50.2l16.4-16.4l3.5-1.8l5.3-8l-3-3l-8,5.3l-1.8,3.5L44.4,46.3c-1.8-1.2-4.2-1-5.8,0.5L21.5,63.9
		c-2.5,2.5-2.5,6.7,0,9.2c2.5,2.5,6.7,2.5,9.2,0L47.9,56C49.4,54.5,49.6,52,48.4,50.2z"/>
	<path class="st0" d="M21.7,50.8l8.7-8.7l4.2,4.2l1.7-1.7c1.5-1.5,3.4-2.3,5.5-2.3c0.6,0,1.2,0.1,1.8,0.2l2.8-2.8l-6.8-6.8l5.8-5.8
		c0.7-0.7,0.7-1.9,0-2.6l-8.9-8.9c-0.7-0.7-1.9-0.7-2.6,0l-7.3,7.3l-0.5-0.5c-0.7-0.7-1.9-0.7-2.6,0L19.9,26c-0.7,0.7-0.7,1.9,0,2.6
		l0.5,0.5l-0.6,0.6c-0.6,0.6-1,1.3-1.1,2.1l-2.2,13.9c-0.2,1.2,0.2,2.5,1.1,3.4l1.6,1.6C19.9,51.5,21,51.5,21.7,50.8z"/>
	<path class="st0" d="M55,48.2L52.2,51c0.6,2.6-0.1,5.4-2.1,7.3L48.4,60l13.1,13.1c2.6,2.6,6.7,2.6,9.2,0c2.6-2.6,2.6-6.7,0-9.2
		L55,48.2z"/>
</g>
</svg>
